<svg height="511pt" viewBox="1 -28 511.99988 511" width="511pt" xmlns="http://www.w3.org/2000/svg"><path d="m424.335938 8h-240.488282v440.898438h320.652344v-360.734376zm0 0" fill="#eceaec"/><path d="m272.027344 424.847656c-35.417969 0-64.132813-28.710937-64.132813-64.128906v-352.71875h-24.046875v440.898438h320.652344v-24.050782zm0 0" fill="#dad8db"/><path d="m296.074219 248.488281c0 48.703125-39.480469 88.179688-88.179688 88.179688s-88.179687-39.476563-88.179687-88.179688c0-48.699219 39.480468-88.175781 88.179687-88.175781s88.179688 39.476562 88.179688 88.175781zm0 0" fill="#c8c5c9"/><path d="m207.894531 160.3125c-48.699219 0-88.179687 39.476562-88.179687 88.175781 0 48.703125 39.480468 88.179688 88.179687 88.179688zm0 0" fill="#b6b1b7"/><path d="m424.335938 8v80.164062h80.164062zm0 0" fill="#dad8db"/><path d="m23.519531 448.898438c-4.101562 0-8.207031-1.566407-11.335937-4.699219-6.261719-6.261719-6.261719-16.40625 0-22.671875l84.863281-84.859375c6.253906-6.261719 16.414063-6.261719 22.667969 0 6.265625 6.265625 6.265625 16.410156 0 22.671875l-84.859375 84.859375c-3.125 3.132812-7.234375 4.699219-11.335938 4.699219zm0 0" fill="#c8c5c9"/><path d="m264.011719 248.488281c0 30.992188-25.125 56.117188-56.117188 56.117188-30.988281 0-56.113281-25.125-56.113281-56.117188 0-30.988281 25.125-56.113281 56.113281-56.113281 30.992188 0 56.117188 25.125 56.117188 56.113281zm0 0" fill="#fff"/><path d="m239.960938 248.488281c0 17.710938-14.355469 32.066407-32.066407 32.066407-17.707031 0-32.066406-14.355469-32.066406-32.066407 0-17.707031 14.359375-32.0625 32.066406-32.0625 17.710938 0 32.066407 14.355469 32.066407 32.0625zm0 0" fill="#dbeaff"/><path d="m34.855469 444.199219 72.835937-72.835938-22.671875-22.671875-72.835937 72.839844c-6.261719 6.261719-6.261719 16.40625 0 22.671875 3.128906 3.128906 7.234375 4.695313 11.335937 4.695313 4.101563 0 8.210938-1.566407 11.335938-4.699219zm0 0" fill="#d19a6e"/><path d="m509.804688 82.859375-80.164063-80.164063c-1.40625-1.40625-3.316406-2.195312-5.304687-2.195312h-240.488282c-4.140625 0-7.5 3.359375-7.5 7.5v120.246094c0 4.140625 3.359375 7.5 7.5 7.5s7.5-3.359375 7.5-7.5v-112.746094h225.488282v72.664062c0 4.140626 3.359374 7.5 7.5 7.5h72.664062v345.734376h-305.652344v-98.664063c5.375.941406 10.90625 1.433594 16.546875 1.433594 52.757813 0 95.679688-42.921875 95.679688-95.679688 0-52.757812-42.921875-95.679687-95.679688-95.679687-52.757812 0-95.679687 42.921875-95.679687 95.679687 0 23.6875 8.65625 45.386719 22.964844 62.113281l-16.324219 16.324219c-3.214844-1.601562-6.777344-2.453125-10.472657-2.453125-6.292968 0-12.203124 2.449219-16.640624 6.894532l-84.859376 84.859374c-9.175781 9.175782-9.175781 24.101563-.003906 33.273438 4.441406 4.449219 10.351563 6.898438 16.640625 6.898438 6.292969 0 12.203125-2.449219 16.640625-6.894532l84.859375-84.859375c4.445313-4.445312 6.894531-10.355469 6.894531-16.640625 0-3.695312-.851562-7.257812-2.453124-10.472656l16.324218-16.324219c8.921875 7.632813 19.261719 13.652344 30.5625 17.609375v110.082032c0 4.140624 3.359375 7.5 7.5 7.5h320.652344c4.140625 0 7.5-3.359376 7.5-7.5v-360.734376c0-1.988281-.789062-3.898437-2.195312-5.304687zm-301.910157 84.953125c44.488281 0 80.679688 36.191406 80.679688 80.679688 0 44.484374-36.191407 80.675781-80.679688 80.675781-44.484375 0-80.679687-36.191407-80.679687-80.675781 0-44.488282 36.195312-80.679688 80.679687-80.679688zm-178.34375 271.089844c-1.609375 1.609375-3.75 2.496094-6.03125 2.496094-2.277343 0-4.421875-.886719-6.03125-2.5-3.324219-3.328126-3.324219-8.738282 0-12.066407l67.53125-67.53125 12.066407 12.066407zm84.863281-84.863282-6.722656 6.71875-12.0625-12.0625 6.722656-6.726562c1.609376-1.609375 3.75-2.496094 6.027344-2.496094 2.28125 0 4.421875.886719 6.035156 2.5 1.609376 1.613282 2.5 3.753906 2.5 6.03125s-.890624 4.421875-2.5 6.035156zm317.421876-327.929687 54.554687 54.554687h-54.554687zm0 0"/><path d="m272.027344 63.597656c7.078125 0 13.613281 3.019532 18.402344 8.496094 2.726562 3.117188 7.464843 3.433594 10.582031.707031 3.121093-2.722656 3.4375-7.460937.710937-10.582031-7.570312-8.65625-18.390625-13.621094-29.695312-13.621094-21.816406 0-39.566406 17.75-39.566406 39.5625v16.035156c0 21.816407 17.75 39.5625 39.566406 39.5625 11.304687 0 22.125-4.964843 29.695312-13.621093 2.726563-3.117188 2.40625-7.855469-.710937-10.582031-3.117188-2.726563-7.855469-2.410157-10.582031.710937-4.789063 5.476563-11.324219 8.492187-18.402344 8.492187-13.546875 0-24.566406-11.019531-24.566406-24.5625v-16.035156c0-13.542968 11.019531-24.5625 24.566406-24.5625zm0 0"/><path d="m386.410156 48.914062c-3.964844-1.1875-8.148437 1.0625-9.339844 5.027344l-21.753906 72.507813c-.414062 1.382812-1.660156 2.3125-3.152344 2.3125-1.441406 0-2.6875-.929688-3.105468-2.3125l-21.75-72.507813c-1.191406-3.964844-5.371094-6.21875-9.339844-5.027344-3.96875 1.191407-6.21875 5.371094-5.027344 9.339844l21.75 72.507813c2.335938 7.777343 9.355469 13 17.523438 13 8.117187 0 15.136718-5.222657 17.472656-13l21.75-72.507813c1.191406-3.96875-1.058594-8.148437-5.027344-9.339844zm0 0"/><path d="m408.304688 176.859375h-80.164063c-4.144531 0-7.5 3.359375-7.5 7.5s3.355469 7.5 7.5 7.5h80.164063c4.140624 0 7.5-3.359375 7.5-7.5s-3.359376-7.5-7.5-7.5zm0 0"/><path d="m464.417969 216.941406h-128.261719c-4.140625 0-7.5 3.359375-7.5 7.5s3.359375 7.5 7.5 7.5h128.261719c4.140625 0 7.5-3.359375 7.5-7.5s-3.359375-7.5-7.5-7.5zm0 0"/><path d="m471.917969 264.523438c0-4.140626-3.359375-7.5-7.5-7.5h-128.261719c-4.140625 0-7.5 3.359374-7.5 7.5 0 4.140624 3.359375 7.5 7.5 7.5h128.261719c4.140625 0 7.5-3.359376 7.5-7.5zm0 0"/><path d="m328.140625 297.105469c-4.140625 0-7.5 3.355469-7.5 7.5 0 4.140625 3.359375 7.5 7.5 7.5h80.164063c4.140624 0 7.5-3.359375 7.5-7.5 0-4.144531-3.359376-7.5-7.5-7.5zm0 0"/><path d="m158.550781 282.667969c1.207031 0 2.429688-.292969 3.5625-.90625 3.644531-1.96875 5-6.519531 3.027344-10.164063-10.148437-18.761718-6.703125-42.398437 8.378906-57.484375 15.085938-15.082031 38.722657-18.527343 57.484375-8.378906 3.644532 1.972656 8.195313.617187 10.164063-3.027344 1.972656-3.640625.617187-8.191406-3.027344-10.164062-24.550781-13.285157-55.488281-8.773438-75.226563 10.964843-19.742187 19.738282-24.25 50.675782-10.964843 75.230469 1.355469 2.507813 3.9375 3.929688 6.601562 3.929688zm0 0"/><path d="m184.789062 291.242188c-3.644531-1.96875-8.195312-.613282-10.167968 3.03125-1.972656 3.640624-.613282 8.191406 3.027344 10.164062 9.425781 5.101562 19.792968 7.578125 30.105468 7.578125 16.550782 0 32.960938-6.378906 45.121094-18.542969 19.742188-19.742187 24.25-50.675781 10.96875-75.230468-1.972656-3.640626-6.523438-4.996094-10.167969-3.027344-3.644531 1.972656-5 6.523437-3.027343 10.167968 10.148437 18.761719 6.703124 42.398438-8.378907 57.484376-15.082031 15.082031-38.722656 18.527343-57.480469 8.375zm0 0"/></svg>