<svg height="511pt" viewBox="0 -11 511.7126 511" width="511pt" xmlns="http://www.w3.org/2000/svg"><path d="m273.101562 8.96875h-187.800781c-9.402343 0-17 7.699219-17.101562 17.097656v42.703125l187.800781 315.597657 85.300781 25.601562 25.597657-307.199219z" fill="#955ba5"/><path d="m273.101562 8.96875v85.300781c0 4.699219 3.796876 8.5 8.5 8.5h83.199219zm0 0" fill="#894b9d"/><path d="m307.199219 162.566406v230.203125l-16 51.296875c-.300781.101563-.699219.101563-1 .101563h-264.597657c-9.402343 0-17-7.699219-17.101562-17.101563v-341.296875c0-9.402343 7.699219-17 17.101562-17.101562h187.699219zm0 0" fill="#b0d3f0"/><path d="m213.300781 68.667969v85.300781c0 4.699219 3.800781 8.5 8.5 8.5h85.300781" fill="#90bae1"/><path d="m153.601562 188.167969c-5.300781 0-10.101562-3.300781-12-8.300781l-21.703124-65.800782c-1.5-4.5 1-9.296875 5.402343-10.796875 4.5-1.5 9.300781 1 10.800781 5.398438l17.5 53 17.5-53.101563c1.5-4.5 6.296876-6.898437 10.796876-5.398437s6.902343 6.300781 5.402343 10.800781l-21.601562 65.5c-1.800781 5.199219-6.597657 8.699219-12.097657 8.699219zm0 0" fill="#955ba5"/><path d="m76.800781 188.167969h-17.101562c-14.097657 0-25.597657-11.5-25.597657-25.601563v-34.097656c0-14.101562 11.5-25.601562 25.597657-25.601562h17.101562c14.097657 0 25.597657 11.5 25.597657 25.601562 0 4.699219-3.796876 8.5-8.5 8.5-4.699219 0-8.5-3.800781-8.5-8.5s-3.796876-8.5-8.5-8.5h-17.199219c-4.699219 0-8.5 3.800781-8.5 8.5v34.097656c0 4.703125 3.800781 8.5 8.5 8.5h17.101562c4.699219 0 8.5-3.796875 8.5-8.5 0-4.699218 3.800781-8.5 8.5-8.5s8.5 3.800782 8.5 8.5c.097657 14.101563-11.402343 25.601563-25.5 25.601563zm0 0" fill="#955ba5"/><g fill="#3d324c"><path d="m264.5 264.96875h-119.398438c-4.703124 0-8.5-3.800781-8.5-8.5s3.796876-8.5 8.5-8.5h119.5c4.699219 0 8.5 3.800781 8.5 8.5 0 4.597656-3.902343 8.5-8.601562 8.5zm0 0"/><path d="m264.5 333.167969h-119.398438c-4.703124 0-8.5-3.800781-8.5-8.5s3.796876-8.5 8.5-8.5h119.5c4.699219 0 8.5 3.800781 8.5 8.5s-3.902343 8.5-8.601562 8.5zm0 0"/><path d="m264.5 401.46875h-119.398438c-4.703124 0-8.5-3.800781-8.5-8.5s3.796876-8.5 8.5-8.5h119.5c4.699219 0 8.5 3.800781 8.5 8.5s-3.902343 8.5-8.601562 8.5zm0 0"/><path d="m264.5 230.769531h-59.699219c-4.699219 0-8.5-3.800781-8.5-8.5 0-4.703125 3.800781-8.5 8.5-8.5h59.699219c4.699219 0 8.5 3.796875 8.5 8.5.101562 4.699219-3.800781 8.5-8.5 8.5zm0 0"/><path d="m264.5 299.066406h-59.699219c-4.699219 0-8.5-3.796875-8.5-8.5 0-4.699218 3.800781-8.5 8.5-8.5h59.699219c4.699219 0 8.5 3.800782 8.5 8.5.101562 4.703125-3.800781 8.5-8.5 8.5zm0 0"/><path d="m264.5 367.367188h-59.699219c-4.699219 0-8.5-3.800782-8.5-8.5 0-4.699219 3.800781-8.5 8.5-8.5h59.699219c4.699219 0 8.5 3.800781 8.5 8.5 0 4.699218-3.800781 8.5-8.5 8.5zm0 0"/><path d="m110.898438 401.46875h-59.699219c-4.699219 0-8.5-3.800781-8.5-8.5s3.800781-8.5 8.5-8.5h59.699219c4.703124 0 8.5 3.800781 8.5 8.5s-3.796876 8.5-8.5 8.5zm0 0"/></g><path d="m110.898438 264.96875c0 14.136719-11.460938 25.597656-25.597657 25.597656-14.140625 0-25.601562-11.460937-25.601562-25.597656 0-14.140625 11.460937-25.601562 25.601562-25.601562 14.136719 0 25.597657 11.460937 25.597657 25.601562zm0 0" fill="#fdd7ad"/><path d="m110.898438 358.769531h-51.199219c-4.699219 0-8.5-3.800781-8.5-8.5v-25.601562c0-18.898438 15.300781-34.101563 34.101562-34.101563s34.097657 15.300782 34.097657 34.101563v25.601562c.101562 4.699219-3.796876 8.5-8.5 8.5zm0 0" fill="#285680"/><path d="m170.699219 299.066406h-25.597657c-4.703124 0-8.5-3.796875-8.5-8.5 0-4.699218 3.796876-8.5 8.5-8.5h25.597657c4.699219 0 8.5 3.800782 8.5 8.5 0 4.703125-3.800781 8.5-8.5 8.5zm0 0" fill="#3d324c"/><path d="m170.699219 230.769531h-25.597657c-4.703124 0-8.5-3.800781-8.5-8.5 0-4.703125 3.796876-8.5 8.5-8.5h25.597657c4.699219 0 8.5 3.796875 8.5 8.5 0 4.699219-3.800781 8.5-8.5 8.5zm0 0" fill="#3d324c"/><path d="m170.699219 367.367188h-25.597657c-4.703124 0-8.5-3.800782-8.5-8.5 0-4.699219 3.796876-8.5 8.5-8.5h25.597657c4.699219 0 8.5 3.800781 8.5 8.5 0 4.699218-3.800781 8.5-8.5 8.5zm0 0" fill="#3d324c"/><path d="m402 62.066406h-1.300781c-.597657 0-1-.398437-1-1 0-.597656.402343-1 1-1h1.300781c.601562 0 1 .402344 1 1 0 .601563-.398438 1-1 1zm0 0"/><path d="m318.398438 370.667969c-7.398438 18.398437-18.5 35.199219-32.597657 49.101562-1.800781 1.699219-2.300781 4.296875-1.402343 6.597657l18.800781 48.902343c.902343 2.398438 2.800781 4.199219 5.199219 5.097657 2.402343.800781 5.101562.5 7.203124-.800782l44.699219-27.296875c2.097657-1.300781 3.199219-3.601562 2.898438-6.101562-2.699219-19.699219-1.300781-39.699219 4.199219-58.800781zm0 0" fill="#e6e7e8"/><path d="m308.199219 489.269531c-.898438 0-1.898438-.203125-2.699219-.5-4.5-1.5-6.800781-6.402343-5.300781-10.800781l16.5-48.5c1.5-4.5 6.402343-6.902344 10.902343-5.300781 4.5 1.5 6.898438 6.398437 5.296876 10.898437l-16.5 48.5c-1.296876 3.402344-4.597657 5.703125-8.199219 5.703125zm0 0" fill="#a5a5a4"/><path d="m416 299.96875c-7.300781 16.5-14.601562 32.800781-22 48.800781-27.101562 5.699219-55.101562-3.800781-73.101562-24.800781 3.800781-17.402344 7.902343-34.699219 12.402343-52.101562 24.597657 16.300781 53.097657 26 82.699219 28.101562zm0 0" fill="#285680"/><path d="m394 348.769531c-1.199219 2.796875-2.5 5.5-3.800781 8.097657-1.300781 2.601562-2.597657 5.402343-3.800781 8.101562-6.398438 12.898438-23 28.898438-34.597657 29.097656-9.199219.101563-18.101562-2.898437-25.300781-8.597656-9-7.300781-12.398438-30-9.601562-44.101562 1.203124-5.800782 2.5-11.597657 3.902343-17.398438 18.097657 21 46.097657 30.5 73.199219 24.800781zm0 0" fill="#d1d4d1"/><path d="m501.898438 77.269531c-2.898438 8.5-5.796876 17.097657-8.898438 25.699219-22.800781-26.601562-56-41.902344-91.101562-41.902344l14.203124-38.097656c8.199219-7.902344 18.898438-12.800781 30.199219-14 14.597657-.300781 28.898438 4.5 40.300781 13.699219 14.5 11.699219 19.898438 41.101562 15.296876 54.601562zm0 0" fill="#285680"/><path d="m493.101562 102.96875c-22.902343 66.097656-48.902343 132.800781-77.101562 196.898438v.101562c-29.601562-2.101562-58.101562-11.800781-82.800781-28.199219v-.101562c7.300781-29.898438 15.402343-60 24-89.898438l44.800781-120.703125c35 0 68.300781 15.300782 91.101562 41.902344zm0 0" fill="#4482c3"/><path d="m356 181.566406c-8.898438-3-13.699219-12.699218-10.699219-21.699218l44-129.199219c3-8.898438 12.699219-13.699219 21.699219-10.699219 8.898438 3 13.699219 12.699219 10.699219 21.699219l-44 129.199219c-3.097657 8.902343-12.800781 13.699218-21.699219 10.699218zm0 0" fill="#2c3e50"/><path d="m141.699219 179.867188c1.902343 5.101562 6.800781 8.402343 12.199219 8.300781 5.402343-.101563 10.203124-3.5 11.902343-8.601563l21.597657-65.5c1.5-4.5-1-9.296875-5.398438-10.796875-4.5-1.5-9.300781 1-10.800781 5.398438l-17.5 53-17.5-53.101563c-1.5-4.5-6.300781-6.898437-10.800781-5.398437s-6.898438 6.300781-5.398438 10.800781zm0 0"/><path d="m76.800781 188.167969c14.097657 0 25.597657-11.5 25.597657-25.601563 0-4.699218-3.796876-8.5-8.5-8.5-4.699219 0-8.5 3.800782-8.5 8.5 0 4.703125-3.796876 8.5-8.5 8.5h-17.199219c-4.699219 0-8.5-3.796875-8.5-8.5v-34.097656c0-4.699219 3.800781-8.5 8.5-8.5h17.101562c4.699219 0 8.5 3.800781 8.5 8.5s3.800781 8.5 8.5 8.5 8.5-3.800781 8.5-8.5c0-14.101562-11.5-25.601562-25.601562-25.601562h-17c-14.097657 0-25.597657 11.5-25.597657 25.601562v34.097656c0 14.101563 11.5 25.601563 25.597657 25.601563zm0 0"/><path d="m264.5 247.867188h-119.398438c-4.703124 0-8.5 3.800781-8.5 8.5 0 4.699218 3.796876 8.5 8.5 8.5h119.5c4.699219 0 8.5-3.800782 8.5-8.5 0-4.699219-3.902343-8.5-8.601562-8.5zm0 0"/><path d="m264.5 316.167969h-119.398438c-4.703124 0-8.5 3.800781-8.5 8.5s3.796876 8.5 8.5 8.5h119.5c4.699219 0 8.5-3.800781 8.5-8.5s-3.902343-8.5-8.601562-8.5zm0 0"/><path d="m264.5 384.367188h-119.398438c-4.703124 0-8.5 3.800781-8.5 8.5 0 4.699218 3.796876 8.5 8.5 8.5h119.5c4.699219 0 8.5-3.800782 8.5-8.5 0-4.699219-3.902343-8.5-8.601562-8.5zm0 0"/><path d="m264.5 213.769531h-59.699219c-4.699219 0-8.5 3.796875-8.5 8.5 0 4.699219 3.800781 8.5 8.5 8.5h59.699219c4.699219 0 8.5-3.800781 8.5-8.5.101562-4.703125-3.800781-8.5-8.5-8.5zm0 0"/><path d="m264.5 281.96875h-59.699219c-4.699219 0-8.5 3.800781-8.5 8.5s3.800781 8.5 8.5 8.5h59.699219c4.699219 0 8.5-3.800781 8.5-8.5.101562-4.601562-3.800781-8.5-8.5-8.5zm0 0"/><path d="m264.5 350.269531h-59.699219c-4.699219 0-8.5 3.796875-8.5 8.5 0 4.699219 3.800781 8.5 8.5 8.5h59.699219c4.699219 0 8.5-3.800781 8.5-8.5 0-4.703125-3.800781-8.5-8.5-8.5zm0 0"/><path d="m110.898438 384.367188h-59.699219c-4.699219 0-8.5 3.800781-8.5 8.5 0 4.699218 3.800781 8.5 8.5 8.5h59.699219c4.703124 0 8.5-3.800782 8.5-8.5 0-4.699219-3.796876-8.5-8.5-8.5zm0 0"/><path d="m109.199219 289.269531c9.902343-9.703125 13-24.402343 7.800781-37.300781-5.199219-12.902344-17.699219-21.300781-31.601562-21.300781-13.898438 0-26.398438 8.398437-31.597657 21.300781-5.199219 12.898438-2.199219 27.597656 7.800781 37.300781-11.800781 7.898438-18.800781 21.199219-18.800781 35.398438v25.601562c0 9.398438 7.597657 17.097657 17.097657 17.097657h51.203124c9.398438 0 17.097657-7.597657 17.097657-17.097657v-25.601562c-.199219-14.199219-7.300781-27.398438-19-35.398438zm-40.898438-24.300781c0-9.402344 7.597657-17.101562 17.097657-17.101562s17.101562 7.601562 17.101562 17.101562c0 9.398438-7.601562 17.097656-17.101562 17.097656s-17.097657-7.699218-17.097657-17.097656zm42.597657 85.300781h-51.199219v-25.601562c0-14.101563 11.5-25.601563 25.601562-25.601563 14.097657 0 25.597657 11.5 25.597657 25.601563zm0 0"/><path d="m145.101562 299.066406h25.597657c4.699219 0 8.5-3.796875 8.5-8.5 0-4.699218-3.800781-8.5-8.5-8.5h-25.597657c-4.703124 0-8.5 3.800782-8.5 8.5-.101562 4.703125 3.796876 8.5 8.5 8.5zm0 0"/><path d="m145.101562 213.769531c-4.703124 0-8.5 3.796875-8.5 8.5 0 4.699219 3.796876 8.5 8.5 8.5h25.597657c4.699219 0 8.5-3.800781 8.5-8.5 0-4.703125-3.800781-8.5-8.5-8.5zm0 0"/><path d="m145.101562 367.367188h25.597657c4.699219 0 8.5-3.800782 8.5-8.5 0-4.699219-3.800781-8.5-8.5-8.5h-25.597657c-4.703124 0-8.5 3.800781-8.5 8.5 0 4.699218 3.796876 8.5 8.5 8.5zm0 0"/><path d="m446.199219.367188c-11.300781.902343-22 5.101562-30.800781 12.199218-.597657-.199218-1.097657-.5-1.597657-.699218-13.402343-4.597657-27.902343 2.601562-32.5 16l-19.601562 57.601562-82.597657-82.601562c-1.601562-1.597657-3.800781-2.5-6-2.5h-187.800781c-14.101562 0-25.601562 11.5-25.601562 25.601562v34.097656h-34.097657c-14.101562.101563-25.601562 11.5-25.601562 25.703125v341.296875c0 14.101563 11.5 25.601563 25.601562 25.601563h259.699219l9.800781 25.601562c1.398438 3.5 3.898438 6.5 7.097657 8.5 1.601562 1.597657 3.699219 2.5 6 2.5.5 0 1.101562-.101562 1.601562-.203125.5 0 .898438.203125 1.300781.203125 3.097657 0 6.199219-.800781 8.796876-2.402343l44.800781-27.398438c4.902343-3 7.601562-8.699219 6.800781-14.402344-2.398438-17.699218-1.199219-35.699218 3.398438-53 7.800781-6.5 14.300781-14.398437 19.101562-23.398437l4.199219-8.800781c1.199219-2.597657 2.402343-5 3.5-7.5 7.402343-15.898438 14.699219-32.097657 21.800781-48.398438.101562-.199219.199219-.5.300781-.699219 28-63.902343 54-130.300781 77.199219-197.402343 2.800781-8 5.5-16 8.199219-23.898438l.601562-1.902344c5.199219-15.699218 0-49.5-18.101562-64.097656-12.699219-10.402344-28.898438-15.9023438-45.5-15.601562zm-35.597657 290.402343c-24-2.601562-47.101562-10.5-67.601562-23 6.601562-26.402343 13.5-52.203125 20.5-76.902343 10.101562-.800782 18.800781-7.5 22.199219-17.199219l33.902343-99.699219c24.796876.097656 48.199219 11.5 63.699219 30.898438-22 63.199218-46.402343 125.601562-72.699219 185.902343zm-22.402343 50.097657c-21.398438 3.300781-43-4.097657-57.898438-19.699219 2.699219-11.898438 5.5-24 8.5-36.101563 19.898438 11.402344 41.898438 18.902344 64.699219 22-5.101562 11.402344-10.199219 22.601563-15.300781 33.800782zm-166.300781-251.597657 64.703124 64.699219h-64.703124zm175.5-55.902343c1-2.898438 3.402343-5 6.402343-5.597657 3-.601562 6.097657.5 8.097657 2.796875 2 2.300782 2.601562 5.5 1.703124 8.402344l-8.101562 23.699219-35.898438 105.5c-.902343 2.898437-3.402343 5.199219-6.402343 5.800781-3 .597656-6.199219-.402344-8.199219-2.800781-2-2.300781-2.601562-5.601563-1.601562-8.5l19.203124-56.398438.097657-.203125zm-115.796876-3.800782 64.699219 64.703125h-64.699219zm-204.800781-3.597656c0-4.699219 3.800781-8.5 8.5-8.5h179.199219v76.800781c0 9.398438 7.601562 17.097657 17.101562 17.097657h71.199219l-15.601562 45.800781c-3.597657 10.898437.402343 22.800781 9.800781 29.300781-7.601562 26.597656-15 54.300781-22 82.800781-.199219.5-.300781 1-.398438 1.597657-3.101562 12.5-6.101562 25-8.902343 37.300781v-145.601563c0-1.097656-.199219-2.199218-.699219-3.296875-.398438-1-1.101562-2-1.898438-2.800781l-93.902343-93.902344c-1.597657-1.597656-3.800781-2.5-6-2.5h-136.398438zm-51.199219 409.597656c-4.703124 0-8.5-3.796875-8.5-8.5v-341.296875c0-4.703125 3.796876-8.5 8.5-8.5h179.199219v76.796875c0 9.402344 7.597657 17.101563 17.097657 17.101563h76.800781v219.101562c-5.398438 8.5-11.699219 16.398438-18.898438 23.5-1.601562 1.597657-2.902343 3.597657-3.601562 5.699219-1.097657 3.300781-1 6.800781.199219 10l2.402343 6.199219h-253.199219zm328.898438 10.101563-32 19.5 10.300781-30.199219c1.5-4.5-.902343-9.300781-5.300781-10.800781s-9.300781.898437-10.800781 5.300781l-10.300781 30.199219-13.398438-35c8.300781-8.398438 15.601562-17.800781 21.699219-28 .199219-.300781.300781-.601563.5-.898438 1.300781-2.101562 2.601562-4.203125 3.699219-6.402343.800781.902343 1.601562 1.800781 2.402343 2.601562 8.699219 6.898438 19.5 10.5 30.597657 10.398438h.101562c1.101562-.097657 2.300781-.300782 3.398438-.5-2.398438 14.601562-2.699219 29.300781-.898438 43.800781zm-2.699219-60.199219c-7.300781.097656-14.300781-2.300781-20-6.800781-5.5-4.398438-9-23.398438-6.5-36 .199219-.898438.398438-1.699219.597657-2.5 14.601562 12.101562 33.101562 18.601562 52.101562 18.5.601562 0 1.300781-.101563 2-.101563l-1.199219 2.5c-5.601562 11.402344-20 24.300782-27 24.402344zm142-310.902344-.601562 1.800782c-1.097657 3.402343-2.300781 6.800781-3.5 10.199218-16.898438-17.597656-39.800781-28.199218-64.199219-29.699218l4.300781-12.5c2.199219-6.398438 1.699219-13.5-1.300781-19.597657-.101562-.101562-.199219-.203125-.199219-.402343 5.300781-3.898438 11.699219-6.398438 18.300781-7 12.597657-.5 25 3.699218 34.796876 11.800781 11.5 9.5 15.902343 35 12.402343 45.398437zm0 0"/></svg>